<svg xmlns="http://www.w3.org/2000/svg" width="640" height="330" viewBox="0 0 640 330" role="img" aria-label="yt-avatar-studio: a YouTube team of 14 agents. Coming soon.">
<defs><radialGradient id="g" cx="85%" cy="20%" r="70%"><stop offset="0" stop-color="#d2a8ff" stop-opacity=".22"/><stop offset="1" stop-color="#0d1117" stop-opacity="0"/></radialGradient></defs>
<rect width="640" height="330" rx="18" fill="#0d1117"/><rect width="640" height="330" rx="18" fill="url(#g)"/>
<rect x=".5" y=".5" width="639" height="329" rx="18" fill="none" stroke="#30363d"/>
<rect x="40" y="0" width="80" height="4" rx="2" fill="#d2a8ff"/>
<rect x="40" y="36" width="118" height="24" rx="12" fill="#6e7681" fill-opacity=".15" stroke="#6e7681" stroke-opacity=".6"/>
<text x="99" y="52" text-anchor="middle" font-family="'SF Mono',SFMono-Regular,Menlo,Consolas,'Liberation Mono',monospace" font-size="11.5" font-weight="700" letter-spacing=".8" fill="#6e7681">COMING SOON</text>
<rect x="440" y="36" width="160" height="72" rx="8" fill="none" stroke="#d2a8ff" stroke-opacity=".7" stroke-width="2.5"/><rect x="450" y="42" width="10" height="6" rx="1.5" fill="#d2a8ff" fill-opacity=".5"/><rect x="450" y="96" width="10" height="6" rx="1.5" fill="#d2a8ff" fill-opacity=".5"/><rect x="470" y="42" width="10" height="6" rx="1.5" fill="#d2a8ff" fill-opacity=".5"/><rect x="470" y="96" width="10" height="6" rx="1.5" fill="#d2a8ff" fill-opacity=".5"/><rect x="490" y="42" width="10" height="6" rx="1.5" fill="#d2a8ff" fill-opacity=".5"/><rect x="490" y="96" width="10" height="6" rx="1.5" fill="#d2a8ff" fill-opacity=".5"/><rect x="510" y="42" width="10" height="6" rx="1.5" fill="#d2a8ff" fill-opacity=".5"/><rect x="510" y="96" width="10" height="6" rx="1.5" fill="#d2a8ff" fill-opacity=".5"/><rect x="530" y="42" width="10" height="6" rx="1.5" fill="#d2a8ff" fill-opacity=".5"/><rect x="530" y="96" width="10" height="6" rx="1.5" fill="#d2a8ff" fill-opacity=".5"/><rect x="550" y="42" width="10" height="6" rx="1.5" fill="#d2a8ff" fill-opacity=".5"/><rect x="550" y="96" width="10" height="6" rx="1.5" fill="#d2a8ff" fill-opacity=".5"/><rect x="570" y="42" width="10" height="6" rx="1.5" fill="#d2a8ff" fill-opacity=".5"/><rect x="570" y="96" width="10" height="6" rx="1.5" fill="#d2a8ff" fill-opacity=".5"/><path d="M510 58 L534 72 L510 86 Z" fill="#d2a8ff"/>
<text x="38" y="122" font-family="-apple-system,BlinkMacSystemFont,'Segoe UI',Helvetica,Arial,sans-serif" font-size="38" font-weight="800" fill="#f0f6fc" letter-spacing="-.8">yt-avatar-studio</text>
<text font-family="-apple-system,BlinkMacSystemFont,'Segoe UI',Helvetica,Arial,sans-serif" font-size="18" fill="#8b949e"><tspan x="40" y="162">A YouTube team of 14 agents.</tspan><tspan x="40" y="188">One human approves.</tspan></text>
<rect x="40" y="262" width="102" height="26" rx="13" fill="#161b22" stroke="#30363d"/><text x="91" y="279" text-anchor="middle" font-family="'SF Mono',SFMono-Regular,Menlo,Consolas,'Liberation Mono',monospace" font-size="12" fill="#c9d1d9">TypeScript</text><rect x="150" y="262" width="110" height="26" rx="13" fill="#161b22" stroke="#30363d"/><text x="205" y="279" text-anchor="middle" font-family="'SF Mono',SFMono-Regular,Menlo,Consolas,'Liberation Mono',monospace" font-size="12" fill="#c9d1d9">Claude Code</text><rect x="268" y="262" width="71" height="26" rx="13" fill="#161b22" stroke="#30363d"/><text x="304" y="279" text-anchor="middle" font-family="'SF Mono',SFMono-Regular,Menlo,Consolas,'Liberation Mono',monospace" font-size="12" fill="#c9d1d9">HeyGen</text>
<text x="600" y="280" text-anchor="end" font-family="'SF Mono',SFMono-Regular,Menlo,Consolas,'Liberation Mono',monospace" font-size="14" font-weight="700" fill="#d2a8ff">soon</text>
</svg>