<svg xmlns="http://www.w3.org/2000/svg" width="640" height="330" viewBox="0 0 640 330" role="img" aria-label="Pharma field-sales CRM with GPS-verified visits. Private build.">
<defs><radialGradient id="g" cx="85%" cy="20%" r="70%"><stop offset="0" stop-color="#f778ba" stop-opacity=".2"/><stop offset="1" stop-color="#0d1117" stop-opacity="0"/></radialGradient></defs>
<rect width="640" height="330" rx="18" fill="#0d1117"/><rect width="640" height="330" rx="18" fill="url(#g)"/>
<rect x=".75" y=".75" width="638.5" height="328.5" rx="18" fill="none" stroke="#30363d"/>
<rect x="40" y="0" width="80" height="4" rx="2" fill="#f778ba"/>
<rect x="40" y="36" width="77" height="24" rx="12" fill="#f778ba" fill-opacity=".15" stroke="#f778ba" stroke-opacity=".6"/>
<text x="78" y="52" text-anchor="middle" font-family="'SF Mono',SFMono-Regular,Menlo,Consolas,'Liberation Mono',monospace" font-size="11.5" font-weight="700" letter-spacing=".8" fill="#f778ba">PHARMA</text>
<path d="M420 104 C450 104 450 60 490 64 S540 100 590 58" stroke="#f778ba" stroke-opacity=".5" stroke-width="2.5" stroke-dasharray="4 6" fill="none"/><path d="M420 104 c-9 0 -14 -7 -14 -13 a14 14 0 0 1 28 0 c0 6 -5 13 -14 13 z" transform="translate(0,-4)" fill="#0d1117" stroke="#f778ba" stroke-width="2"/><circle cx="420" cy="87" r="4" fill="#f778ba"/><path d="M490 66 c-9 0 -14 -7 -14 -13 a14 14 0 0 1 28 0 c0 6 -5 13 -14 13 z" transform="translate(0,-4)" fill="#0d1117" stroke="#f778ba" stroke-width="2"/><circle cx="490" cy="49" r="4" fill="#f778ba"/><path d="M590 60 c-9 0 -14 -7 -14 -13 a14 14 0 0 1 28 0 c0 6 -5 13 -14 13 z" transform="translate(0,-4)" fill="#f778ba" stroke="#f778ba" stroke-width="2"/><circle cx="590" cy="43" r="4" fill="#f778ba"/><path d="M583 42 l4 4 l8 -8" stroke="#0d1117" stroke-width="2.5" fill="none" transform="translate(0,-2)"/>
<text x="38" y="122" font-family="-apple-system,BlinkMacSystemFont,'Segoe UI',Helvetica,Arial,sans-serif" font-size="36" font-weight="800" fill="#f0f6fc" letter-spacing="-.8">Field-sales CRM</text>
<text font-family="-apple-system,BlinkMacSystemFont,'Segoe UI',Helvetica,Arial,sans-serif" font-size="18" fill="#8b949e"><tspan x="40" y="162">GPS-verified clinic visits for reps.</tspan><tspan x="40" y="188">A live pipeline for their managers.</tspan></text>
<rect x="40" y="262" width="118" height="26" rx="13" fill="#161b22" stroke="#30363d"/><text x="99" y="279" text-anchor="middle" font-family="'SF Mono',SFMono-Regular,Menlo,Consolas,'Liberation Mono',monospace" font-size="12" fill="#c9d1d9">GPS check-in</text><rect x="166" y="262" width="118" height="26" rx="13" fill="#161b22" stroke="#30363d"/><text x="225" y="279" text-anchor="middle" font-family="'SF Mono',SFMono-Regular,Menlo,Consolas,'Liberation Mono',monospace" font-size="12" fill="#c9d1d9">mobile-first</text><rect x="292" y="262" width="102" height="26" rx="13" fill="#161b22" stroke="#30363d"/><text x="343" y="279" text-anchor="middle" font-family="'SF Mono',SFMono-Regular,Menlo,Consolas,'Liberation Mono',monospace" font-size="12" fill="#c9d1d9">dashboards</text>
<text x="600" y="280" text-anchor="end" font-family="'SF Mono',SFMono-Regular,Menlo,Consolas,'Liberation Mono',monospace" font-size="14" font-weight="700" fill="#f778ba">private build</text>
</svg>